<svg width="1024" height="1024" viewBox="0 0 1024 1024" fill="none" xmlns="http://www.w3.org/2000/svg">
  <defs>
    <linearGradient id="bg" x1="128" y1="96" x2="896" y2="928" gradientUnits="userSpaceOnUse">
      <stop stop-color="#0A0C12"/>
      <stop offset="0.52" stop-color="#101523"/>
      <stop offset="1" stop-color="#07090D"/>
    </linearGradient>
    <radialGradient id="glowA" cx="0" cy="0" r="1" gradientUnits="userSpaceOnUse" gradientTransform="translate(252 260) rotate(34) scale(420 388)">
      <stop stop-color="#8C33FF" stop-opacity="0.4"/>
      <stop offset="1" stop-color="#8C33FF" stop-opacity="0"/>
    </radialGradient>
    <radialGradient id="glowB" cx="0" cy="0" r="1" gradientUnits="userSpaceOnUse" gradientTransform="translate(760 744) rotate(34) scale(452 398)">
      <stop stop-color="#38E0F5" stop-opacity="0.24"/>
      <stop offset="1" stop-color="#38E0F5" stop-opacity="0"/>
    </radialGradient>
    <linearGradient id="orbit" x1="224" y1="256" x2="800" y2="768" gradientUnits="userSpaceOnUse">
      <stop stop-color="#8C33FF"/>
      <stop offset="0.48" stop-color="#365CFF"/>
      <stop offset="0.82" stop-color="#38E0F5"/>
      <stop offset="1" stop-color="#BAFF40"/>
    </linearGradient>
    <linearGradient id="barFill" x1="384" y1="320" x2="640" y2="720" gradientUnits="userSpaceOnUse">
      <stop stop-color="#F9FBFF"/>
      <stop offset="1" stop-color="#A8B3C9"/>
    </linearGradient>
    <linearGradient id="baseFill" x1="332" y1="692" x2="692" y2="692" gradientUnits="userSpaceOnUse">
      <stop stop-color="#171B24"/>
      <stop offset="1" stop-color="#0C1018"/>
    </linearGradient>
    <linearGradient id="bubbleFill" x1="648" y1="252" x2="788" y2="404" gradientUnits="userSpaceOnUse">
      <stop stop-color="#ECF5FF"/>
      <stop offset="0.58" stop-color="#8CEBFF"/>
      <stop offset="1" stop-color="#365CFF"/>
    </linearGradient>
    <filter id="softBlur" x="-120" y="-120" width="1264" height="1264" filterUnits="userSpaceOnUse" color-interpolation-filters="sRGB">
      <feGaussianBlur stdDeviation="36"/>
    </filter>
  </defs>

  <rect width="1024" height="1024" rx="224" fill="url(#bg)"/>
  <rect width="1024" height="1024" rx="224" fill="url(#glowA)"/>
  <rect width="1024" height="1024" rx="224" fill="url(#glowB)"/>

  <g opacity="0.55" filter="url(#softBlur)">
    <circle cx="512" cy="512" r="290" stroke="url(#orbit)" stroke-width="56"/>
  </g>

  <circle cx="512" cy="512" r="286" stroke="white" stroke-opacity="0.08" stroke-width="12"/>
  <circle
    cx="512"
    cy="512"
    r="274"
    stroke="url(#orbit)"
    stroke-width="72"
    stroke-linecap="round"
    stroke-dasharray="1400 322"
    stroke-dashoffset="188"
  />

  <rect x="314" y="664" width="396" height="52" rx="26" fill="url(#baseFill)"/>
  <rect x="314" y="664" width="396" height="52" rx="26" stroke="white" stroke-opacity="0.08" stroke-width="2"/>

  <rect x="340" y="516" width="92" height="180" rx="46" fill="url(#barFill)"/>
  <rect x="466" y="412" width="92" height="284" rx="46" fill="url(#barFill)"/>
  <rect x="592" y="316" width="92" height="380" rx="46" fill="url(#barFill)"/>

  <rect x="340" y="516" width="92" height="180" rx="46" stroke="white" stroke-opacity="0.14" stroke-width="2"/>
  <rect x="466" y="412" width="92" height="284" rx="46" stroke="white" stroke-opacity="0.14" stroke-width="2"/>
  <rect x="592" y="316" width="92" height="380" rx="46" stroke="white" stroke-opacity="0.14" stroke-width="2"/>

  <circle cx="706" cy="336" r="86" fill="url(#bubbleFill)"/>
  <circle cx="706" cy="336" r="86" stroke="white" stroke-opacity="0.26" stroke-width="4"/>
  <circle cx="706" cy="336" r="28" fill="#0B0E14" fill-opacity="0.9"/>

  <circle cx="360" cy="742" r="10" fill="white" fill-opacity="0.2"/>
  <circle cx="512" cy="742" r="10" fill="white" fill-opacity="0.28"/>
  <circle cx="664" cy="742" r="10" fill="white" fill-opacity="0.16"/>
</svg>
